HIERARCHY
ROOT RootJoint
{
    OFFSET   0.000000   0.000000   0.000000
    CHANNELS 6 Xposition Yposition Zposition Xrotation Yrotation Zrotation
    JOINT pelvis_lowerback
    {
        OFFSET   0.000000   0.093605   0.000000
        CHANNELS 3 Xrotation Yrotation Zrotation
        JOINT lowerback_torso
        {
            OFFSET   0.000000   0.100000   0.000000
            CHANNELS 3 Xrotation Yrotation Zrotation
            JOINT torso_head
            {
                OFFSET   0.000000   0.282350   0.000000
                CHANNELS 3 Xrotation Yrotation Zrotation
                End Site
                {
                    OFFSET   0.000000   0.192650   0.000000
                }
            }
            JOINT rTorso_Clavicle
            {
                OFFSET  -0.001000   0.157500   0.000000
                CHANNELS 3 Xrotation Yrotation Zrotation
                JOINT rShoulder
                {
                    OFFSET  -0.117647   0.000000   0.000000
                    CHANNELS 3 Xrotation Yrotation Zrotation
                    JOINT rElbow
                    {
                        OFFSET  -0.245000   0.000000   0.000000
                        CHANNELS 3 Xrotation Yrotation Zrotation
                        JOINT rWrist
                        {
                            OFFSET  -0.240000   0.000000   0.000000
                            CHANNELS 3 Xrotation Yrotation Zrotation
                            End Site
                            {
                                OFFSET  -0.116353  -0.002500   0.000000
                            }
                        }
                    }
                }
            }
            JOINT lTorso_Clavicle
            {
                OFFSET   0.001000   0.157500   0.000000
                CHANNELS 3 Xrotation Yrotation Zrotation
                JOINT lShoulder
                {
                    OFFSET   0.117647   0.000000   0.000000
                    CHANNELS 3 Xrotation Yrotation Zrotation
                    JOINT lElbow
                    {
                        OFFSET   0.245000   0.000000   0.000000
                        CHANNELS 3 Xrotation Yrotation Zrotation
                        JOINT lWrist
                        {
                            OFFSET   0.240000   0.000000   0.000000
                            CHANNELS 3 Xrotation Yrotation Zrotation
                            End Site
                            {
                                OFFSET   0.116353  -0.002500   0.000000
                            }
                        }
                    }
                }
            }
        }
    }
    JOINT rHip
    {
        OFFSET  -0.100000  -0.051395   0.000000
        CHANNELS 3 Xrotation Yrotation Zrotation
        JOINT rKnee
        {
            OFFSET   0.000000  -0.410000   0.000000
            CHANNELS 3 Xrotation Yrotation Zrotation
            JOINT rAnkle
            {
                OFFSET   0.000000  -0.390000   0.000000
                CHANNELS 3 Xrotation Yrotation Zrotation
                JOINT rToeJoint
                {
                    OFFSET   0.000000  -0.050000   0.130000
                    CHANNELS 3 Xrotation Yrotation Zrotation
                    End Site
                    {
                        OFFSET  -0.010000   0.002000   0.060000
                    }
                }
            }
        }
    }
    JOINT lHip
    {
        OFFSET   0.100000  -0.051395   0.000000
        CHANNELS 3 Xrotation Yrotation Zrotation
        JOINT lKnee
        {
            OFFSET   0.000000  -0.410000   0.000000
            CHANNELS 3 Xrotation Yrotation Zrotation
            JOINT lAnkle
            {
                OFFSET   0.000000  -0.390000   0.000000
                CHANNELS 3 Xrotation Yrotation Zrotation
                JOINT lToeJoint
                {
                    OFFSET   0.000000  -0.050000   0.130000
                    CHANNELS 3 Xrotation Yrotation Zrotation
                    End Site
                    {
                        OFFSET   0.010000   0.002000   0.060000
                    }
                }
            }
        }
    }
}
MOTION
Frames: 14
Frame Time:   0.008333
 -2.376719   0.925631   3.975860   0.000000   0.000000   0.000000   0.000000   0.000000   0.000000   0.000000   0.000000   0.000000   0.000000   0.000000   0.000000   0.000000   0.000000   0.000000   0.000000   0.000000   0.000000   0.000000   0.000000   0.000000   0.000000   0.000000   0.000000   0.000000   0.000000   0.000000   0.000000   0.000000   0.000000   0.000000   0.000000   0.000000   0.000000   0.000000   0.000000   0.000000   0.000000   0.000000   0.000000   0.000000   0.000000   0.000000   0.000000   0.000000   0.000000   0.000000   0.000000   0.000000   0.000000   0.000000   0.000000   0.000000   0.000000   0.000000   0.000000   0.000000   0.000000   0.000000   0.000000
 -2.376454   0.926313   3.976236  -0.911194   0.010501   0.194245   0.911380   0.073278  -0.237175   0.268543  -0.215422   0.024699  -0.142191   0.081030   0.085788   0.146558  -0.188846   0.592373   0.818156   0.376769   1.935486   0.024829   1.125758  -0.012334   0.503216  -0.711339  -2.940766   0.186757   0.187245  -0.477283   0.774782   0.039495  -2.017838   0.025424  -1.153185   0.012617   0.508020   0.462664   2.954187   0.884383   0.030765  -0.433819   0.568018   0.001190   0.000213  -0.720541  -0.106167   0.164581   0.044726   0.000029  -0.000024   0.779130   0.026232  -0.077127   0.824949  -0.000840   0.000290  -0.712897   0.329610   0.164398   0.014299  -0.000035   0.000046
 -2.376110   0.927461   3.976647  -1.870764  -0.005288   0.402472   1.779001   0.146881  -0.469275   0.615539  -0.419668   0.042840  -0.244639   0.155054   0.169412   0.291558  -0.264824   1.936022   1.598025   0.879558   4.477690   0.058311   2.240279  -0.021645   1.035798  -1.039878  -5.144040   0.375084   0.280159  -1.717065   1.524785  -0.032781  -4.632024   0.058962  -2.282415   0.022259   1.051881   0.583807   5.150895   1.804800   0.044221  -1.046995   1.226300   0.003280   0.000162  -1.391807  -0.210222   0.315449   0.058376   0.000054  -0.000030   1.583531   0.064984  -0.033923   1.750215  -0.002691   0.000550  -1.376726   0.641382   0.323445  -0.003948   0.000037  -0.000018
 -2.375771   0.928619   3.977077  -2.784377  -0.041557   0.600967   2.579318   0.217962  -0.686275   0.943449  -0.605155   0.051194  -0.339310   0.223540   0.251841   0.423684  -0.256066   3.733141   2.330510   1.474269   7.419653   0.091629   3.303830  -0.027737   1.555990  -1.173667  -6.462447   0.550101   0.292421  -3.455485   2.215356  -0.189216  -7.504704   0.091430  -3.357959   0.028572   1.585529   0.533170   6.399137   2.686598   0.037414  -1.774713   1.866956   0.005571  -0.000140  -2.017047  -0.311265   0.453795   0.067816   0.000075  -0.000034   2.347731   0.110371   0.137285   2.641714  -0.005019   0.000776  -1.995926   0.932248   0.476356  -0.024874   0.000126  -0.000072
 -2.375479   0.929452   3.977534  -3.637764  -0.091408   0.785901   3.317462   0.285353  -0.892829   1.239336  -0.774660   0.050623  -0.432453   0.287181   0.330667   0.542178  -0.194254   5.783018   3.013171   2.142475  10.624526   0.120582   4.310186  -0.031374   2.061578  -1.194587  -7.113576   0.708756   0.251952  -5.475433   2.847425  -0.408191 -10.476503   0.118724  -4.375563   0.032360   2.104613   0.380146   6.944489   3.519545   0.012760  -2.583413   2.470431   0.007712  -0.000577  -2.600849  -0.408752   0.580796   0.070285   0.000071  -0.000031   3.062694   0.160991   0.420065   3.477911  -0.007422   0.001021  -2.575078   1.203524   0.623125  -0.050888   0.000241  -0.000124
 -2.375209   0.929698   3.978032  -4.431624  -0.148269   0.954200   4.000122   0.349507  -1.083590   1.506265  -0.928929   0.058241  -0.523660   0.346217   0.399556   0.648779  -0.098232   8.005003   3.609558   2.833316  13.838253   0.142809   5.259996  -0.032914   2.552547  -1.132244  -7.225465   0.850218   0.179001  -7.639093   3.423027  -0.672211 -13.450575   0.139239  -5.334529   0.034289   2.606435   0.162832   7.008989   4.304387  -0.027003  -3.450455   3.035653   0.009568  -0.001056  -3.146176  -0.502277   0.697520   0.066820   0.000039  -0.000020   3.729302   0.215621   0.793691   4.258611  -0.009622   0.001305  -3.117048   1.456514   0.763750  -0.081118   0.000375  -0.000173
 -2.374951   0.929169   3.978573  -5.169717  -0.208847   1.107189   4.632831   0.409800  -1.255689   1.749027  -1.070480   0.075676  -0.611460   0.401197   0.461654   0.744510   0.012620  10.287973   4.126309   3.527420  16.984342   0.157912   6.152220  -0.032963   3.025059  -1.021230  -6.992102   0.975576   0.090331  -9.847803   3.945210  -0.964875 -16.361285   0.152808  -6.235196   0.034855   3.088343  -0.091969   6.763953   5.043285  -0.079277  -4.359244   3.565008   0.011082  -0.001523  -3.655487  -0.591672   0.804830   0.059341  -0.000011  -0.000004   4.350536   0.273246   1.237294   4.987166  -0.011481   0.001613  -3.624115   1.692338   0.898161  -0.113390   0.000508  -0.000214
 -2.374793   0.927141   3.978620  -5.403368  -0.422814   0.999738   4.807610   0.517560  -1.088579   1.936579  -1.117775   0.067491  -0.814603   0.358558   0.488151   0.961185   0.247755  11.993737   4.819542   4.151329  19.697544   0.168501   7.170559  -0.036700   3.461227  -0.798395  -5.627962   1.337008  -0.013605 -11.255018   4.369470  -1.212184 -19.324802   0.160350  -7.208428   0.036957   3.524733  -0.491590   5.518532   5.015966  -0.258402  -4.930849   4.392955   0.013379  -0.004705  -4.153340  -0.569315   1.218836   0.169613   0.000229  -0.000384   4.635557   0.561913   1.916789   4.823807  -0.008359   0.001089  -3.475292   1.950858   0.986348  -0.010368  -0.000203   0.000138
 -2.374646   0.923862   3.978456  -5.572076  -0.603567   0.855517   4.999995   0.601778  -0.889269   2.092376  -1.159045   0.092969  -1.020559   0.312995   0.518100   1.143284   0.491251  13.354566   5.437706   4.769425  22.064112   0.169175   8.129210  -0.038790   3.893567  -0.512756  -4.424256   1.666790  -0.121585 -12.338459   4.754110  -1.457878 -21.943939   0.158632  -8.120569   0.037825   3.945067  -0.931287   4.378007   4.919903  -0.437367  -5.409892   5.158746   0.014450  -0.006873  -4.616871  -0.552098   1.606411   0.276722   0.000383  -0.000662   4.828188   0.834365   2.583828   4.525626  -0.005310   0.000503  -3.338565   2.193722   1.069087   0.116935  -0.000845   0.000493
 -2.374488   0.919479   3.978201  -5.717928  -0.756566   0.709439   5.207959   0.679495  -0.688419   2.247937  -1.196174   0.134374  -1.209263   0.269721   0.548998   1.295884   0.727210  14.470886   5.988366   5.368517  24.158267   0.163730   9.026495  -0.039525   4.307141  -0.225272  -3.493131   1.964101  -0.228836 -13.188381   5.100597  -1.697916 -24.272208   0.151383  -8.972683   0.037573   4.343605  -1.357858   3.501003   4.818178  -0.602905  -5.839826   5.863734   0.014694  -0.008144  -5.050041  -0.538653   1.968271   0.375511   0.000471  -0.000829   4.959610   1.089533   3.198888   4.207246  -0.002929   0.000016  -3.213213   2.420668   1.145936   0.232691  -0.001230   0.000737
 -2.374170   0.918472   3.977923  -5.907481  -0.837521   0.372970   5.464867   0.742109  -0.307318   2.447545  -1.235590   0.252398  -1.383459   0.228972   0.585295   1.424784   0.964532  15.627591   6.478516   5.946168  26.090514   0.156815   9.853227  -0.039315   4.698640  -0.008939  -2.844394   2.223488  -0.355697 -14.153940   5.405825  -1.949027 -26.470974   0.143402  -9.763111   0.036607   4.720205  -1.720135   2.870879   4.569712  -0.626974  -5.583717   6.670662   0.011970  -0.007978  -5.297581  -0.350005   2.628269   0.133330   0.001642  -0.000679   5.354246   1.107512   3.565441   3.929736  -0.002217   0.000240  -3.908678   2.364532   0.871913   0.486913  -0.000405   0.000272
 -2.373771   0.918405   3.977699  -6.071439  -1.047819   0.489531   5.706730   0.849467  -0.346731   2.638709  -1.239319   0.234878  -1.537100   0.192102   0.614902   1.542504   1.192924  16.692107   6.915278   6.517511  27.934929   0.148144  10.636844  -0.038317   5.073457   0.246232  -2.146532   2.474155  -0.451942 -14.904700   5.690527  -2.175270 -28.462353   0.133362 -10.498411   0.034965   5.076315  -2.067795   2.258546   4.377451  -0.756914  -5.816115   7.285417   0.009752  -0.008497  -5.664941  -0.346697   2.929025   0.282993   0.001027  -0.001016   5.614620   1.230969   3.392620   3.775571  -0.001810   0.000295  -3.764188   2.438103   0.835913   0.434419  -0.000354   0.000220
 -2.373504   0.918373   3.977511  -6.195825  -1.286851   0.561297   5.920024   0.965054  -0.306188   2.809139  -1.226301   0.210952  -1.678640   0.157844   0.628017   1.647133   1.400623  17.575147   7.308646   7.056949  29.599201   0.137650  11.370106  -0.036546   5.431140   0.513568  -1.502736   2.717527  -0.521091 -15.517728   5.957028  -2.377235 -30.281743   0.121966 -11.181912   0.032849   5.413596  -2.392913   1.713019   4.193854  -0.881223  -5.995006   7.796916   0.007869  -0.008636  -6.029341  -0.346161   3.197222   0.412385   0.000593  -0.001246   5.834776   1.370232   3.268786   3.636359  -0.001471   0.000349  -3.654588   2.529203   0.836783   0.399775  -0.000290   0.000177
 -2.373267   0.918370   3.977418  -6.266487  -1.481371   0.659421   6.087117   1.044079  -0.277395   2.922648  -1.192582   0.218892  -1.778906   0.082147   0.584904   1.739125   1.508251  18.058216   7.618085   7.530713  30.820125   0.123966  12.106407  -0.033927   5.737244   0.896293  -0.244012   2.938608  -0.508284 -15.801736   6.097042  -2.553361 -31.798261   0.110233 -11.968709   0.030015   5.710241  -2.683636   0.717468   3.983639  -1.006976  -6.189964   8.289992   0.006347  -0.008468  -6.468871  -0.342940   3.438473   0.641669   0.000111  -0.001653   6.025416   1.631558   3.125119   3.452401  -0.001219   0.000161  -3.684350   2.608893   0.934640   0.525525  -0.000309   0.000312
